# xmcd
#
# Track frame offsets:
#	150
#	19109
#	37873
#	58142
#	76585
#	96677
#	119531
#	150156
#	167376
#	187722
#	212806
#	241285
#	266285
#	286444
#
# Disc length: 3860 seconds
#
# Revision: 0
# Processed by: cddbd v1.5.1PL0 Copyright (c) Steve Scherf et al.
# Submitted via: EasyCDDAExtractor 8.2.1.1
#
DISCID=ab0f120e
DTITLE=Tony Joe White - One Hot July
DYEAR=1900
DGENRE=Blues
TTITLE0=Crack the Window Baby
TTITLE1=Gumbo John
TTITLE2=Across from Midnight
TTITLE3=Goin' Down Rockin'
TTITLE4=Cold Fingers
TTITLE5=I Want My Fleetwood Back
TTITLE6=I Believe I've Lost My Way
TTITLE7=Don't over Do It
TTITLE8=The Delta Singer
TTITLE9=Ol' Black Crow
TTITLE10=One Hot July
TTITLE11=Conjure Woman
TTITLE12=Selena
TTITLE13=One Hot July
EXTD=
EXTT0=
EXTT1=
EXTT2=
EXTT3=
EXTT4=
EXTT5=
EXTT6=
EXTT7=
EXTT8=
EXTT9=
EXTT10=
EXTT11=
EXTT12=
EXTT13=
PLAYORDER=
